<?xml version="1.0" encoding="UTF-8"?><!DOCTYPE svg PUBLIC "-//W3C//DTD SVG 1.1//EN" "http://www.w3.org/Graphics/SVG/1.1/DTD/svg11.dtd"><svg xmlns="http://www.w3.org/2000/svg" xmlns:xlink="http://www.w3.org/1999/xlink"><defs><path id="SVGID_1_" d="M0 0h61.8v63.3H0z"/><path id="SVGID_3_" d="M0 0h30.4v34.4H0z"/><path id="SVGID_5_" d="M0 0h26.9v28H0z"/><path id="SVGID_7_" d="M0 0h35v22.8H0z"/></defs><symbol id="icons-01" viewBox="0 0 59 35.4"><style>.st0{fill:#ffb600}.st1{fill:#cb2026}.st2{fill:#fff}.st3{fill:#104493}.st4{clip-path:url(#SVGID_2_)}.st5{clip-path:url(#SVGID_4_);fill-rule:evenodd;clip-rule:evenodd}.st6{fill:none;stroke:#000;stroke-width:3;stroke-linecap:round;stroke-linejoin:round;stroke-miterlimit:10}.st7{fill:#231f20}.st8{fill:#f9b953}.st9{fill:#c31a36}.st10{fill:#18bf18}.st11{clip-path:url(#SVGID_6_)}.st12{fill:#ff7a3e}.st13{stroke:#000;stroke-width:2.5;stroke-miterlimit:10}.st13,.st14{fill:none}.st15{stroke:#231f20;stroke-width:.55;stroke-miterlimit:10}.st16{clip-path:url(#SVGID_8_)}</style><path class="st0" d="M59 17.7c0 9.7-7.9 17.7-17.7 17.7-9.7 0-17.7-8-17.7-17.7S31.5 0 41.2 0C51.1 0 59 8 59 17.7zm0 0"/><path class="st1" d="M35.3 17.8c0-1.3-.2-2.5-.4-3.7H24.1c.1-.7.3-1.2.5-1.9h9.7c-.2-.7-.5-1.3-.7-1.9h-8.2c.3-.7.7-1.2 1-1.9h6.3c-.4-.7-.8-1.3-1.4-1.9h-3.5c.6-.7 1.1-1.2 1.8-1.8C26.5 1.8 22.3.1 17.7.1 8 .3 0 8 0 17.7c0 9.7 7.9 17.7 17.7 17.7 4.6 0 8.7-1.8 11.9-4.6.7-.6 1.2-1.2 1.8-1.9h-3.7c-.5-.6-.9-1.2-1.3-1.8h6.3c.4-.6.7-1.2 1-1.9h-8.3c-.3-.6-.6-1.2-.7-1.9h9.7c.5-1.7.9-3.5.9-5.5z"/><path class="st2" d="M24 22.2l.3-1.6c-.1 0-.3.1-.5.1-.7 0-.7-.4-.7-.6l.6-3.3h1L25 15h-.9l.2-1.1h-1.9s-1.1 6.2-1.1 6.9c0 1.1.7 1.6 1.5 1.6.5.1 1-.1 1.2-.2zm0 0"/><path class="st2" d="M24.6 19.2c0 2.6 1.8 3.3 3.3 3.3 1.4 0 2-.3 2-.3l.4-1.8s-1 .5-2 .5c-2.1 0-1.7-1.5-1.7-1.5h3.8s.3-1.2.3-1.7c0-1.2-.7-2.7-2.7-2.7-2-.2-3.4 1.9-3.4 4.2zm3.3-2.7c1 0 .8 1.2.8 1.3h-2.1c.1-.1.3-1.3 1.3-1.3zm0 0M39.8 22.2l.4-2.1s-.9.5-1.6.5c-1.3 0-1.9-1-1.9-2.2 0-2.2 1.1-3.5 2.4-3.5.9 0 1.7.6 1.7.6l.3-2S40 13 38.9 13c-2.2 0-4.3 1.9-4.3 5.4 0 2.3 1.1 3.9 3.4 3.9.8.2 1.8-.1 1.8-.1zm0 0M13.7 14.8c-1.3 0-2.2.4-2.2.4l-.3 1.6s.8-.4 2.1-.4c.7 0 1.2.1 1.2.7 0 .4-.1.5-.1.5h-.8c-1.6 0-3.4.7-3.4 2.8 0 1.7 1.1 2.1 1.8 2.1 1.3 0 1.9-.8 2-.8l-.1.7h1.7l.7-5.2c-.1-2.3-2-2.4-2.6-2.4zM14 19c0 .3-.2 1.8-1.3 1.8-.6 0-.7-.5-.7-.7 0-.5.3-1.1 1.7-1.1h.3zm0 0M18 22.4c.5 0 2.8.1 2.8-2.4 0-2.3-2.2-1.9-2.2-2.8 0-.5.4-.7 1-.7.3 0 1.3.1 1.3.1l.3-1.7s-.7-.2-1.8-.2c-1.4 0-2.8.6-2.8 2.4 0 2.2 2.3 2 2.3 2.8 0 .6-.7.7-1.1.7-.8 0-1.7-.3-1.7-.3l-.3 1.7c.1.2.6.4 2.2.4zm0 0M55.3 13.3l-.3 2.5s-.7-.9-1.8-.9c-1.7 0-3.2 2.1-3.2 4.5 0 1.5.7 3.1 2.3 3.1 1.1 0 1.8-.7 1.8-.7l-.1.6h1.9l1.4-9-2-.1zm-.8 5c0 1-.5 2.3-1.5 2.3-.7 0-1-.6-1-1.5 0-1.5.7-2.4 1.5-2.4.6 0 1 .4 1 1.6zm0 0M3.5 22.3l1.1-6.7.2 6.7h1.3l2.4-6.7-1 6.7h2l1.5-9H7.9L6 18.8l-.1-5.5H3.2l-1.5 9h1.8zm0 0"/><path class="st2" d="M32.5 22.3c.6-3.1.7-5.6 2-5.2.2-1.2.5-1.7.7-2.2h-.4c-.8 0-1.5 1.1-1.5 1.1l.2-1h-1.8l-1.2 7.3h2zm0 0M44.1 14.8c-1.3 0-2.2.4-2.2.4l-.3 1.6s.8-.4 2.1-.4c.7 0 1.2.1 1.2.7 0 .4-.1.5-.1.5H44c-1.6 0-3.4.7-3.4 2.8 0 1.7 1.1 2.1 1.8 2.1 1.3 0 1.9-.8 2-.8l-.1.7H46l.7-5.2c0-2.3-1.9-2.4-2.6-2.4zm.5 4.2c0 .3-.2 1.8-1.3 1.8-.6 0-.7-.5-.7-.7 0-.5.3-1.1 1.7-1.1h.3zm0 0M48.2 22.3c.6-3.1.7-5.6 2-5.2.2-1.2.5-1.7.7-2.2h-.4c-.8 0-1.5 1.1-1.5 1.1l.2-1h-1.8l-1.2 7.3h2zm0 0"/></symbol><symbol id="icons-02" viewBox="0 0 62 19.1"><style>.st0{fill:#ffb600}.st1{fill:#cb2026}.st2{fill:#fff}.st3{fill:#104493}.st4{clip-path:url(#SVGID_2_)}.st5{clip-path:url(#SVGID_4_);fill-rule:evenodd;clip-rule:evenodd}.st6{fill:none;stroke:#000;stroke-width:3;stroke-linecap:round;stroke-linejoin:round;stroke-miterlimit:10}.st7{fill:#231f20}.st8{fill:#f9b953}.st9{fill:#c31a36}.st10{fill:#18bf18}.st11{clip-path:url(#SVGID_6_)}.st12{fill:#ff7a3e}.st13{stroke:#000;stroke-width:2.5;stroke-miterlimit:10}.st13,.st14{fill:none}.st15{stroke:#231f20;stroke-width:.55;stroke-miterlimit:10}.st16{clip-path:url(#SVGID_8_)}</style><path class="st3" d="M57.9.3H54c-1.2 0-2.1.3-2.6 1.5l-7.5 16.9h5.3s.9-2.3 1.1-2.8h6.5c.1.6.6 2.8.6 2.8H62L57.9.3zm-6.2 12c.4-1.1 2-5.2 2-5.2 0 .1.4-1.1.7-1.8l.3 1.6s1 4.4 1.2 5.3h-4.2zM44.3 12.8c0 3.8-3.5 6.3-8.8 6.3-2.3 0-4.4-.5-5.6-1l.7-4.1.7.3c1.7.7 2.7 1 4.7 1 1.5 0 3-.6 3-1.8 0-.8-.7-1.4-2.6-2.3-1.9-.9-4.4-2.4-4.4-5C32 2.5 35.5 0 40.5 0c2 0 3.5.4 4.5.8l-.7 4-.5-.2c-.9-.4-2.1-.7-3.8-.7-2 0-2.9.8-2.9 1.6 0 .9 1.1 1.4 2.8 2.3 3 1.3 4.4 2.9 4.4 5z"/><path class="st0" d="M0 .5L.1.1h7.8c1.1 0 1.9.4 2.2 1.5l1.7 8.2C10.1 5.6 6.1 2 0 .5z"/><path class="st3" d="M22.8.3l-7.9 18.5H9.6L5 3.4c3.2 2.1 6 5.4 7 7.7l.5 1.9L17.4.4h5.4zM24.8.3h5.1l-3.2 18.5h-5z"/></symbol><symbol id="icons-03" viewBox="0 0 39.7 38.1"><style>.st0{fill:#ffb600}.st1{fill:#cb2026}.st2{fill:#fff}.st3{fill:#104493}.st4{clip-path:url(#SVGID_2_)}.st5{clip-path:url(#SVGID_4_);fill-rule:evenodd;clip-rule:evenodd}.st6{fill:none;stroke:#000;stroke-width:3;stroke-linecap:round;stroke-linejoin:round;stroke-miterlimit:10}.st7{fill:#231f20}.st8{fill:#f9b953}.st9{fill:#c31a36}.st10{fill:#18bf18}.st11{clip-path:url(#SVGID_6_)}.st12{fill:#ff7a3e}.st13{stroke:#000;stroke-width:2.5;stroke-miterlimit:10}.st13,.st14{fill:none}.st15{stroke:#231f20;stroke-width:.55;stroke-miterlimit:10}.st16{clip-path:url(#SVGID_8_)}</style><path class="st3" d="M9.3 7.2l15.8-4.3-.8-1.7c-.5-1.1-1.9-1.6-3-1l-14.2 7h2.2zm0 0M30 3.1c-.2 0-.4 0-.6.1l-3.7 1-11.4 3h18.5l-.7-2.5c-.2-1-1.1-1.6-2.1-1.6zm0 0M35.1 8.8H2.2c-.7 0-1.3.3-1.7.8-.2.2-.3.5-.4.8-.1.2-.1.4-.1.6v24.8C0 37 1 38 2.2 38h32.9c1.2 0 2.2-1 2.2-2.2v-6.2H24.2c-2.1 0-3.8-1.7-3.8-3.8v-5c0-1 .4-2 1.1-2.6.6-.6 1.4-1 2.3-1.1h13.6V11c0-1.2-1-2.2-2.3-2.2zm0 0"/><path class="st3" d="M38.9 19.2c-.2-.2-.5-.4-.8-.5-.2-.1-.5-.1-.7-.1H24.2c-1.2 0-2.2 1-2.2 2.2v5c0 1.2 1 2.2 2.2 2.2h13.3c.3 0 .5 0 .7-.1.3-.1.6-.3.8-.5.4-.4.7-1 .7-1.6v-5c0-.6-.3-1.2-.8-1.6zm-10.1 4.6c0 .6-.5 1.1-1.1 1.1H27c-.6 0-1.1-.5-1.1-1.1v-.7c0-.4.2-.7.4-.9.2-.1.4-.2.7-.2h.7c.6 0 1.1.5 1.1 1.1v.7zm0 0"/></symbol><symbol id="icons-04" viewBox="0 0 61.8 63.3"><style>.st0{fill:#ffb600}.st1{fill:#cb2026}.st2{fill:#fff}.st3{fill:#104493}.st4{clip-path:url(#SVGID_2_)}.st5{clip-path:url(#SVGID_4_);fill-rule:evenodd;clip-rule:evenodd}.st6{fill:none;stroke:#000;stroke-width:3;stroke-linecap:round;stroke-linejoin:round;stroke-miterlimit:10}.st7{fill:#231f20}.st8{fill:#f9b953}.st9{fill:#c31a36}.st10{fill:#18bf18}.st11{clip-path:url(#SVGID_6_)}.st12{fill:#ff7a3e}.st13{stroke:#000;stroke-width:2.5;stroke-miterlimit:10}.st13,.st14{fill:none}.st15{stroke:#231f20;stroke-width:.55;stroke-miterlimit:10}.st16{clip-path:url(#SVGID_8_)}</style><path d="M25.2 26.3c0 1.5-1.2 2.6-2.6 2.6-1.5 0-2.6-1.2-2.6-2.6 0-1.5 1.2-2.6 2.6-2.6 1.4-.1 2.6 1.1 2.6 2.6zm0 0"/><clipPath id="SVGID_2_"><use xlink:href="#SVGID_1_" overflow="visible"/></clipPath><path class="st4" d="M41.9 37c0 1.5-1.2 2.6-2.6 2.6-1.5 0-2.6-1.2-2.6-2.6 0-1.5 1.2-2.6 2.6-2.6 1.4-.1 2.6 1.1 2.6 2.6zm0 0"/><path class="st4" d="M61 35.1l-1-1.3c-1-1.4-1.1-3.3 0-4.8l.9-1.3c1.4-2 .8-4.8-1.4-6l-1.4-.8c-1.6-.8-2.4-2.6-2.1-4.3l.3-1.6c.4-2.4-1.4-4.7-3.9-4.8l-1.6-.1c-1.8-.1-3.3-1.3-3.8-3l-.5-1.6c-.7-2.4-3.3-3.6-5.6-2.6l-1.5.6c-1.6.7-3.5.3-4.7-1l-1.1-1.2c-1.6-1.8-4.5-1.8-6.2.1l-1.1 1.2c-1.2 1.3-3 1.8-4.7 1.1l-1.5-.6c-2.3-.9-4.9.3-5.5 2.7l-.4 1.6c-.5 1.7-2 2.9-3.7 3l-1.6.1c-2.5.1-4.3 2.4-3.8 4.8l.5 1.7c.3 1.7-.5 3.5-2 4.3l-1.4.8c-2.2 1.2-2.8 4-1.3 6l1 1.3c1 1.4 1.1 3.3 0 4.8L1 35.5c-1.4 2-.8 4.8 1.4 6l1.4.8c1.6.8 2.4 2.6 2.1 4.3l-.3 1.6C5.2 50.6 7 52.9 9.5 53l1.6.1c1.8.1 3.3 1.3 3.8 3l.5 1.6c.7 2.4 3.3 3.6 5.6 2.6l1.5-.6c1.6-.7 3.5-.3 4.7 1l1.1 1.2c1.7 1.8 4.5 1.8 6.2-.1l1.1-1.2c1.2-1.3 3-1.8 4.7-1.1l1.5.6c2.3.9 4.9-.3 5.5-2.7l.4-1.6c.5-1.7 2-2.9 3.7-3l1.6-.1c2.5-.1 4.3-2.4 3.8-4.8l-.3-1.6c-.3-1.7.5-3.5 2-4.3l1.4-.8c1.9-1.3 2.6-4.1 1.1-6.1zm-44.9-8.8c0-3.5 2.8-6.4 6.4-6.4 3.5 0 6.4 2.8 6.4 6.4 0 3.5-2.8 6.4-6.4 6.4-3.5-.1-6.4-2.9-6.4-6.4zm7.6 16.4c-.5.7-1.5.7-2.2.2-.7-.5-.7-1.5-.2-2.2L38 20.6c.5-.7 1.5-.7 2.2-.2.7.5.7 1.5.2 2.2L23.7 42.7zm15.6.6c-3.5 0-6.4-2.8-6.4-6.4 0-3.5 2.8-6.4 6.4-6.4 3.5 0 6.4 2.8 6.4 6.4-.1 3.6-2.9 6.4-6.4 6.4zm0 0"/></symbol><symbol id="icons-05" viewBox="0 0 70.8 67.6"><style>.st0{fill:#ffb600}.st1{fill:#cb2026}.st2{fill:#fff}.st3{fill:#104493}.st4{clip-path:url(#SVGID_2_)}.st5{clip-path:url(#SVGID_4_);fill-rule:evenodd;clip-rule:evenodd}.st6{fill:none;stroke:#000;stroke-width:3;stroke-linecap:round;stroke-linejoin:round;stroke-miterlimit:10}.st7{fill:#231f20}.st8{fill:#f9b953}.st9{fill:#c31a36}.st10{fill:#18bf18}.st11{clip-path:url(#SVGID_6_)}.st12{fill:#ff7a3e}.st13{stroke:#000;stroke-width:2.5;stroke-miterlimit:10}.st13,.st14{fill:none}.st15{stroke:#231f20;stroke-width:.55;stroke-miterlimit:10}.st16{clip-path:url(#SVGID_8_)}</style><path d="M38.1 1.7l8.6 17.4c.4.9 1.3 1.5 2.3 1.7l19.2 2.8c2.5.4 3.5 3.4 1.7 5.2L56 42.2c-.7.7-1 1.7-.9 2.7L58.4 64c.4 2.5-2.2 4.4-4.4 3.2l-17.1-9c-.9-.5-1.9-.5-2.8 0l-17.1 9c-2.2 1.2-4.8-.7-4.4-3.2l3.3-19.1c.2-1-.2-2-.9-2.7L.9 28.7c-1.8-1.8-.8-4.8 1.7-5.2l19.2-2.8c1-.1 1.9-.8 2.3-1.7l8.6-17.4c1.1-2.2 4.3-2.2 5.4.1z"/></symbol><symbol id="icons-06" viewBox="0 0 67 77.4"><style>.st0{fill:#ffb600}.st1{fill:#cb2026}.st2{fill:#fff}.st3{fill:#104493}.st4{clip-path:url(#SVGID_2_)}.st5{clip-path:url(#SVGID_4_);fill-rule:evenodd;clip-rule:evenodd}.st6{fill:none;stroke:#000;stroke-width:3;stroke-linecap:round;stroke-linejoin:round;stroke-miterlimit:10}.st7{fill:#231f20}.st8{fill:#f9b953}.st9{fill:#c31a36}.st10{fill:#18bf18}.st11{clip-path:url(#SVGID_6_)}.st12{fill:#ff7a3e}.st13{stroke:#000;stroke-width:2.5;stroke-miterlimit:10}.st13,.st14{fill:none}.st15{stroke:#231f20;stroke-width:.55;stroke-miterlimit:10}.st16{clip-path:url(#SVGID_8_)}</style><path d="M67 58V19.3L33.5 0 0 19.3V58l33.5 19.4z"/></symbol><symbol id="icons-07" viewBox="0 0 30.4 34.4"><style>.st0{fill:#ffb600}.st1{fill:#cb2026}.st2{fill:#fff}.st3{fill:#104493}.st4{clip-path:url(#SVGID_2_)}.st5{clip-path:url(#SVGID_4_);fill-rule:evenodd;clip-rule:evenodd}.st6{fill:none;stroke:#000;stroke-width:3;stroke-linecap:round;stroke-linejoin:round;stroke-miterlimit:10}.st7{fill:#231f20}.st8{fill:#f9b953}.st9{fill:#c31a36}.st10{fill:#18bf18}.st11{clip-path:url(#SVGID_6_)}.st12{fill:#ff7a3e}.st13{stroke:#000;stroke-width:2.5;stroke-miterlimit:10}.st13,.st14{fill:none}.st15{stroke:#231f20;stroke-width:.55;stroke-miterlimit:10}.st16{clip-path:url(#SVGID_8_)}</style><clipPath id="SVGID_2_"><use xlink:href="#SVGID_3_" overflow="visible"/></clipPath><path d="M27.7 18.9c1.5.1 2.7-1.1 2.8-2.6.1-1.5-1-2.8-2.4-2.9l-9.7-1.2s2-3.4 2-8.4C20.4.4 18 0 16.6 0c-1.1 0-1.4 2.1-1.4 2.1-.3 1.4-.6 2.6-1.7 4.8-1.3 2.5-3 2.2-5 4.5-.4.4-.8 1-1.3 1.8 0 0-.1.1-.1.2s-.1.2-.1.3c-.1.1-.2.3-.2.4-1.3 1.3-3.2 1.1-4 1.1-1.7 0-2.5 1-2.5 2.5v11.6c0 1.8.7 2.4 2.5 2.4h2.5c1.3 0 2.3.7 3.8 1.3 2.1.7 5.2 1.3 10.6 1.3h3.9c.9 0 1.6-.4 2.1-.9.2-.2.4-.5.5-1v-.5c.1-1.5-.9-2.1-1.4-2.2l1.7.1c1.5.1 2.9-1 2.9-2.8 0-1.5-1.2-2.5-2.7-2.6h.9c1.5.1 2.7-1.1 2.8-2.6-.1-1.5-1.3-2.8-2.7-2.9zm0 0" clip-path="url(#SVGID_2_)" fill-rule="evenodd" clip-rule="evenodd"/></symbol><symbol id="icons-08" viewBox="0 0 36.9 37.6"><style>.st0{fill:#ffb600}.st1{fill:#cb2026}.st2{fill:#fff}.st3{fill:#104493}.st4{clip-path:url(#SVGID_2_)}.st5{clip-path:url(#SVGID_4_);fill-rule:evenodd;clip-rule:evenodd}.st6{fill:none;stroke:#000;stroke-width:3;stroke-linecap:round;stroke-linejoin:round;stroke-miterlimit:10}.st7{fill:#231f20}.st8{fill:#f9b953}.st9{fill:#c31a36}.st10{fill:#18bf18}.st11{clip-path:url(#SVGID_6_)}.st12{fill:#ff7a3e}.st13{stroke:#000;stroke-width:2.5;stroke-miterlimit:10}.st13,.st14{fill:none}.st15{stroke:#231f20;stroke-width:.55;stroke-miterlimit:10}.st16{clip-path:url(#SVGID_8_)}</style><path class="st13" d="M35.2 20.7l-.6-.7c-.6-.8-.6-1.9 0-2.7l.5-.7c.8-1.1.4-2.7-.8-3.3l-.8-.4c-.9-.5-1.3-1.4-1.2-2.4l.2-.9c.2-1.4-.8-2.6-2.2-2.7h-.9c-1 0-1.8-.7-2.1-1.6l-.3-.9c-.4-1.3-1.8-2-3.1-1.5l-.8.4c-.9.4-1.9.2-2.6-.6L20 2c-.9-1-2.5-1-3.4 0l-.6.7c-.6.7-1.7 1-2.6.6l-.8-.3c-1.3-.5-2.7.2-3.1 1.5l-.2.9C9 6.3 8.2 7 7.2 7l-.9.1c-1.4.1-2.4 1.3-2.1 2.7l.2.9c.2 1-.3 1.9-1.1 2.4l-.8.4c-1.2.7-1.5 2.2-.7 3.3l.5.7c.6.8.6 1.9 0 2.7l-.6.8c-.8 1.1-.4 2.7.8 3.3l.8.4c.9.5 1.3 1.4 1.2 2.4l-.2.9c-.2 1.4.8 2.6 2.2 2.7h.9c1 0 1.8.7 2.1 1.6l.3.9c.4 1.3 1.8 2 3.1 1.5l.8-.4c.9-.4 1.9-.2 2.6.6l.6.7c.9 1 2.5 1 3.4 0l.6-.7c.6-.7 1.7-1 2.6-.6l.8.3c1.3.5 2.7-.2 3.1-1.5l.2-.9c.3-.9 1.1-1.6 2.1-1.7l.9-.1c1.4-.1 2.4-1.3 2.1-2.7l-.2-.9c-.2-1 .3-1.9 1.1-2.4l.8-.4c1.2-.6 1.6-2.2.8-3.3zm-5.4 10.7"/><path class="st14" d="M23.8 12.2c-.4-.3-1-.3-1.3.1l-10 12.1c-.3.4-.3 1 .1 1.3.4.3 1 .3 1.3-.1l10-12.1c.4-.4.3-1-.1-1.3z"/><path d="M12.6 25.7c.4.3 1 .3 1.3-.1l10-12.1c.3-.4.3-1-.1-1.3-.4-.3-1-.3-1.3.1l-10 12.1c-.3.4-.3 1 .1 1.3zM13.2 11.9c-2.1 0-3.8 1.7-3.8 3.8 0 2.1 1.7 3.8 3.8 3.8 2.1 0 3.8-1.7 3.8-3.8 0-2.1-1.7-3.8-3.8-3.8zm0 5.4c-.9 0-1.6-.7-1.6-1.6 0-.9.7-1.6 1.6-1.6.9 0 1.6.7 1.6 1.6 0 .9-.7 1.6-1.6 1.6zM23.3 18.3c-2.1 0-3.8 1.7-3.8 3.8 0 2.1 1.7 3.8 3.8 3.8 2.1 0 3.8-1.7 3.8-3.8 0-2-1.7-3.8-3.8-3.8zm0 5.5c-.9 0-1.6-.7-1.6-1.6 0-.9.7-1.6 1.6-1.6.9 0 1.6.7 1.6 1.6 0 .8-.7 1.6-1.6 1.6z"/></symbol><symbol id="icons-09" viewBox="0 0 32.9 32.9"><style>.st0{fill:#ffb600}.st1{fill:#cb2026}.st2{fill:#fff}.st3{fill:#104493}.st4{clip-path:url(#SVGID_2_)}.st5{clip-path:url(#SVGID_4_);fill-rule:evenodd;clip-rule:evenodd}.st6{fill:none;stroke:#000;stroke-width:3;stroke-linecap:round;stroke-linejoin:round;stroke-miterlimit:10}.st7{fill:#231f20}.st8{fill:#f9b953}.st9{fill:#c31a36}.st10{fill:#18bf18}.st11{clip-path:url(#SVGID_6_)}.st12{fill:#ff7a3e}.st13{stroke:#000;stroke-width:2.5;stroke-miterlimit:10}.st13,.st14{fill:none}.st15{stroke:#231f20;stroke-width:.55;stroke-miterlimit:10}.st16{clip-path:url(#SVGID_8_)}</style><path class="st7" d="M32.9 16.4c0-9-7.4-16.4-16.5-16.4S0 7.4 0 16.4c0 5.5 2.7 10.4 6.9 13.3l.1.1s.1 0 .1.1c.2.1.4.3.6.4.2.1.4.3.6.4l.6.3c.3.1.5.3.8.4.2.1.3.2.5.2.4.2.9.3 1.3.5.1 0 .2.1.3.1.4.1.7.2 1.1.3.2 0 .3.1.5.1.3.1.7.1 1.1.2.2 0 .3 0 .5.1.5 0 1 .1 1.5.1s1 0 1.5-.1c.2 0 .3 0 .4-.1.4 0 .7-.1 1.1-.2.2 0 .3-.1.5-.1l1.2-.3c.1 0 .2 0 .3-.1.5-.1.9-.3 1.4-.5.1-.1.3-.1.4-.2.3-.1.6-.3.9-.4.2-.1.4-.2.5-.3.2-.1.5-.3.7-.4.2-.1.4-.2.5-.4l.1-.1.1-.1c4.1-2.9 6.8-7.8 6.8-13.3zM22.4 29.7l-.6.3c-.1 0-.2.1-.3.1-3.2 1.2-6.9 1.2-10.1 0-.1 0-.2-.1-.3-.1l-.6-.3-.6-.3c-.1 0-.2-.1-.3-.1 2.9-1.3 3.9-2.8 3.9-5.6 0-1.1-.3-1.6-.6-2-.3-.4-.6-.9-.9-2.3-.2-1-.8-1.3-1.1-1.4-.2-.1-.4-.2-.5-1.3 0-.4.1-.5.1-.6.3-.2.5-.6.5-1 0 0-.1-.8-.3-1.7-.4-2.4-.4-4.8 2.4-6C16 6.2 18 7 18.2 7.2c.2.3.5.4.7.5h.2c.1 0 1.4 0 2.2.9 1.1 1.3.8 4.9.6 6.4-.1.4.1.8.4 1 0 0 .1.1.1.5-.1 1.2-.3 1.3-.5 1.4-.3.1-.9.4-1.1 1.4-.3 1.4-.6 1.9-.9 2.3-.3.4-.6.9-.6 2 0 2.8 1 4.3 3.9 5.6-.1.1-.2.1-.3.2-.1.1-.3.2-.5.3zm2.8-1.7c-3.5-1.4-3.9-2.5-3.9-4.4 0-.5.1-.6.3-.9.3-.5.8-1.2 1.2-3 .8-.4 1.4-1 1.5-3 0-.9-.3-1.4-.5-1.8.2-1.5.6-5.6-1.1-7.5-1-1.2-2.4-1.5-3.3-1.5-1-.9-3.7-1.6-7.1-.2-4.1 1.7-4 5.4-3.6 8 .1.5.1.9.2 1.3-.3.3-.5.9-.5 1.8.1 1.9.7 2.5 1.5 2.9.3 1.8.8 2.5 1.2 3 .2.3.3.4.3.9 0 1.9-.4 3-3.9 4.4-3.5-2.7-5.7-6.8-5.7-11.5C1.8 8.5 8.3 2 16.3 2s14.5 6.5 14.5 14.5c.2 4.6-2.1 8.8-5.6 11.5z"/></symbol><symbol id="icons-10" viewBox="0 0 29 36.2"><style>.st0{fill:#ffb600}.st1{fill:#cb2026}.st2{fill:#fff}.st3{fill:#104493}.st4{clip-path:url(#SVGID_2_)}.st5{clip-path:url(#SVGID_4_);fill-rule:evenodd;clip-rule:evenodd}.st6{fill:none;stroke:#000;stroke-width:3;stroke-linecap:round;stroke-linejoin:round;stroke-miterlimit:10}.st7{fill:#231f20}.st8{fill:#f9b953}.st9{fill:#c31a36}.st10{fill:#18bf18}.st11{clip-path:url(#SVGID_6_)}.st12{fill:#ff7a3e}.st13{stroke:#000;stroke-width:2.5;stroke-miterlimit:10}.st13,.st14{fill:none}.st15{stroke:#231f20;stroke-width:.55;stroke-miterlimit:10}.st16{clip-path:url(#SVGID_8_)}</style><path d="M29 31.3L26.9 8c0-.5-.5-.9-1-.9h-4.3c-.1-3.9-3.2-7-7.2-7-3.9 0-7.1 3.1-7.2 7H3.1c-.5-.1-1 .3-1 .9L0 31.3v.1c0 2.7 2.4 4.8 5.4 4.8h18.1c3.1 0 5.5-2.1 5.5-4.9 0 .1 0 0 0 0zM14.5 2c2.8 0 5.1 2.3 5.2 5H9.3c.1-2.7 2.4-5 5.2-5zm9.1 32.2H5.4C3.6 34.2 2 33 2 31.5L4 9.1h3.3v3c0 .6.4 1 1 1s1-.4 1-1v-3h10.3v3c0 .6.4 1 1 1s1-.4 1-1v-3H25l2 22.4c0 1.5-1.6 2.7-3.4 2.7zm0 0"/></symbol><symbol id="icons-11" viewBox="0 0 29.5 29.5"><style>.st0{fill:#ffb600}.st1{fill:#cb2026}.st2{fill:#fff}.st3{fill:#104493}.st4{clip-path:url(#SVGID_2_)}.st5{clip-path:url(#SVGID_4_);fill-rule:evenodd;clip-rule:evenodd}.st6{fill:none;stroke:#000;stroke-width:3;stroke-linecap:round;stroke-linejoin:round;stroke-miterlimit:10}.st7{fill:#231f20}.st8{fill:#f9b953}.st9{fill:#c31a36}.st10{fill:#18bf18}.st11{clip-path:url(#SVGID_6_)}.st12{fill:#ff7a3e}.st13{stroke:#000;stroke-width:2.5;stroke-miterlimit:10}.st13,.st14{fill:none}.st15{stroke:#231f20;stroke-width:.55;stroke-miterlimit:10}.st16{clip-path:url(#SVGID_8_)}</style><path class="st8" d="M26.7 21.7l-3.4-3.4c-.6-.6-1.3-1-2.1-1s-1.5.3-2.1 1l-2 2c-.2-.1-.3-.2-.5-.2l-.6-.3c-1.8-1.2-3.5-2.7-5.1-4.7-.8-1-1.3-1.8-1.7-2.7l1.4-1.4c.2-.2.3-.4.5-.5 1.3-1.3 1.3-3 0-4.3L9.5 4.4l-.6-.6-1.2-1.2c-.6-.6-1.3-.9-2.1-.9-.7 0-1.5.3-2.1.9L1.4 4.8C.6 5.6.1 6.5 0 7.7c-.1 1.8.4 3.5.8 4.6 1 2.7 2.5 5.2 4.8 7.9 2.7 3.3 6 5.8 9.8 7.6 1.4.7 3.3 1.5 5.5 1.6h.4c1.4 0 2.6-.5 3.6-1.5.3-.4.7-.7 1.1-1.1l.8-.8c.6-.6.9-1.4.9-2.2 0-.7-.3-1.5-1-2.1zm-1.2 3.1c-.2.3-.5.5-.8.8l-1.2 1.2c-.6.7-1.4 1-2.3 1h-.3c-1.8-.1-3.6-.8-4.9-1.5-3.5-1.7-6.6-4.1-9.2-7.2-2.1-2.6-3.5-4.9-4.5-7.5-.6-1.6-.8-2.8-.7-3.9.2-.6.4-1.2 1-1.7l2.1-2.1c.3-.4.6-.5.9-.5.4 0 .7.2.9.4L7.7 5l.6.6L10 7.3c.7.7.7 1.3 0 1.9-.2.2-.4.4-.6.5-.5.5-1 1-1.6 1.5-.5.5-.4 1.1-.3 1.4v.1c.4 1.1 1.1 2.1 2 3.3 1.7 2.1 3.5 3.8 5.5 5 .3.2.5.3.8.4l.6.3h.1c.3.3.5.3.7.3.5 0 .8-.3.9-.4l2.1-2.1c.2-.2.5-.5.9-.5s.7.2.9.5l3.4 3.4c.8.6.8 1.3.1 1.9z"/><path class="st9" d="M15.9 7c1.6.3 3.1 1 4.3 2.2 1.2 1.2 1.9 2.7 2.2 4.3.1.4.4.7.8.7h.1c.5-.1.8-.5.7-1-.3-2-1.3-3.8-2.7-5.2-1.4-1.4-3.2-2.4-5.2-2.7-.5-.1-.9.2-1 .7.1.5.4.9.8 1zm0 0M29.5 13c-.6-3.3-2.1-6.2-4.4-8.6C22.7 2 19.8.5 16.5 0c-.5-.1-.9.2-1 .7-.1.5.2.9.7 1 2.9.5 5.5 1.9 7.7 4 2.1 2.1 3.5 4.8 4 7.7.1.4.4.7.8.7h.1c.4-.2.7-.6.7-1.1zm0 0"/></symbol><symbol id="icons-12" viewBox="0 0 35.8 34.5"><style>.st0{fill:#ffb600}.st1{fill:#cb2026}.st2{fill:#fff}.st3{fill:#104493}.st4{clip-path:url(#SVGID_2_)}.st5{clip-path:url(#SVGID_4_);fill-rule:evenodd;clip-rule:evenodd}.st6{fill:none;stroke:#000;stroke-width:3;stroke-linecap:round;stroke-linejoin:round;stroke-miterlimit:10}.st7{fill:#231f20}.st8{fill:#f9b953}.st9{fill:#c31a36}.st10{fill:#18bf18}.st11{clip-path:url(#SVGID_6_)}.st12{fill:#ff7a3e}.st13{stroke:#000;stroke-width:2.5;stroke-miterlimit:10}.st13,.st14{fill:none}.st15{stroke:#231f20;stroke-width:.55;stroke-miterlimit:10}.st16{clip-path:url(#SVGID_8_)}</style><path class="st8" d="M33.1 14.5c-.6 0-1.1.5-1.1 1.1v1.5c0 4-1.6 7.7-4.4 10.5C24.8 30.4 21 32 17.1 32c-4 0-7.7-1.6-10.5-4.4-2.9-2.8-4.4-6.6-4.4-10.5 0-4 1.6-7.7 4.4-10.5 2.8-2.8 6.5-4.4 10.5-4.4 2.1 0 4.1.4 6.1 1.3.6.2 1.2 0 1.5-.6.2-.6 0-1.2-.6-1.5-2.2-1-4.5-1.5-6.9-1.5C12.5 0 8.2 1.8 5 5c-3.2 3.2-5 7.5-5 12.1S1.8 26 5 29.2c3.2 3.2 7.5 5 12.1 5v.4-.4c4.6 0 8.8-1.8 12.1-5 3.2-3.2 5-7.5 5-12.1v-1.5c0-.6-.5-1.1-1.1-1.1z"/><path class="st10" d="M35.4 1.9c-.4-.4-1.1-.4-1.6 0L17.1 18.7l-4-4c-.2-.2-.5-.3-.8-.3-.3 0-.6.1-.8.3-.2.2-.3.5-.3.8 0 .3.1.6.3.8l4.8 4.8c.4.4 1.1.4 1.6 0L35.4 3.5c.2-.2.3-.5.3-.8.1-.3-.1-.6-.3-.8z"/></symbol><symbol id="icons-13" viewBox="0 0 35.8 34.5"><style>.st0{fill:#ffb600}.st1{fill:#cb2026}.st2{fill:#fff}.st3{fill:#104493}.st4{clip-path:url(#SVGID_2_)}.st5{clip-path:url(#SVGID_4_);fill-rule:evenodd;clip-rule:evenodd}.st6{fill:none;stroke:#000;stroke-width:3;stroke-linecap:round;stroke-linejoin:round;stroke-miterlimit:10}.st7{fill:#231f20}.st8{fill:#f9b953}.st9{fill:#c31a36}.st10{fill:#18bf18}.st11{clip-path:url(#SVGID_6_)}.st12{fill:#ff7a3e}.st13{stroke:#000;stroke-width:2.5;stroke-miterlimit:10}.st13,.st14{fill:none}.st15{stroke:#231f20;stroke-width:.55;stroke-miterlimit:10}.st16{clip-path:url(#SVGID_8_)}</style><path class="st8" d="M33.1 14.5c-.6 0-1.1.5-1.1 1.1v1.5c0 4-1.6 7.7-4.4 10.5C24.8 30.4 21 32 17.1 32c-4 0-7.7-1.6-10.5-4.4-2.9-2.8-4.4-6.6-4.4-10.5 0-4 1.6-7.7 4.4-10.5 2.8-2.8 6.5-4.4 10.5-4.4 2.1 0 4.1.4 6.1 1.3.6.2 1.2 0 1.5-.6.2-.6 0-1.2-.6-1.5-2.2-1-4.5-1.5-6.9-1.5C12.5 0 8.2 1.8 5 5c-3.2 3.2-5 7.5-5 12.1S1.8 26 5 29.2c3.2 3.2 7.5 5 12.1 5v.4-.4c4.6 0 8.8-1.8 12.1-5 3.2-3.2 5-7.5 5-12.1v-1.5c0-.6-.5-1.1-1.1-1.1z"/><path class="st9" d="M35.4 1.9c-.4-.4-1.1-.4-1.6 0L17.1 18.7l-4-4c-.2-.2-.5-.3-.8-.3-.3 0-.6.1-.8.3-.2.2-.3.5-.3.8 0 .3.1.6.3.8l4.8 4.8c.4.4 1.1.4 1.6 0L35.4 3.5c.2-.2.3-.5.3-.8.1-.3-.1-.6-.3-.8z"/></symbol><symbol id="icons-14" viewBox="0 0 24.6 19.8"><style>.st0{fill:#ffb600}.st1{fill:#cb2026}.st2{fill:#fff}.st3{fill:#104493}.st4{clip-path:url(#SVGID_2_)}.st5{clip-path:url(#SVGID_4_);fill-rule:evenodd;clip-rule:evenodd}.st6{fill:none;stroke:#000;stroke-width:3;stroke-linecap:round;stroke-linejoin:round;stroke-miterlimit:10}.st7{fill:#231f20}.st8{fill:#f9b953}.st9{fill:#c31a36}.st10{fill:#18bf18}.st11{clip-path:url(#SVGID_6_)}.st12{fill:#ff7a3e}.st13{stroke:#000;stroke-width:2.5;stroke-miterlimit:10}.st13,.st14{fill:none}.st15{stroke:#231f20;stroke-width:.55;stroke-miterlimit:10}.st16{clip-path:url(#SVGID_8_)}</style><path class="st10" d="M24.2.3c-.4-.4-1.1-.4-1.6 0L5.9 17.1l-4-4c-.2-.2-.5-.3-.8-.3-.3 0-.6.1-.8.3-.2.2-.3.5-.3.8 0 .3.1.6.3.8l4.8 4.8c.4.4 1.1.4 1.6 0L24.2 1.9c.2-.2.3-.5.3-.8.1-.3 0-.6-.3-.8z"/></symbol><symbol id="icons-15" viewBox="0 0 53 53.9"><style>.st0{fill:#ffb600}.st1{fill:#cb2026}.st2{fill:#fff}.st3{fill:#104493}.st4{clip-path:url(#SVGID_2_)}.st5{clip-path:url(#SVGID_4_);fill-rule:evenodd;clip-rule:evenodd}.st6{fill:none;stroke:#000;stroke-width:3;stroke-linecap:round;stroke-linejoin:round;stroke-miterlimit:10}.st7{fill:#231f20}.st8{fill:#f9b953}.st9{fill:#c31a36}.st10{fill:#18bf18}.st11{clip-path:url(#SVGID_6_)}.st12{fill:#ff7a3e}.st13{stroke:#000;stroke-width:2.5;stroke-miterlimit:10}.st13,.st14{fill:none}.st15{stroke:#231f20;stroke-width:.55;stroke-miterlimit:10}.st16{clip-path:url(#SVGID_8_)}</style><path class="st8" d="M29.6 32.3v21.6h17.8c2.3 0 4.2-1.9 4.2-4.2V32.3h-22zm0 0M23.3 32.3h-22v17.4c0 2.3 1.9 4.2 4.2 4.2h17.8V32.3zM7.1 49.5c-.9 0-1.6-.7-1.6-1.6v-8.7c0-.9.7-1.6 1.6-1.6.9 0 1.6.7 1.6 1.6v8.7c-.1.9-.8 1.6-1.6 1.6zm0 0"/><path class="st12" d="M48.8 15.9h-7.9c1.1-.5 2-1.1 2.5-1.6 3.2-3.2 3.2-8.5 0-11.7C41.8 1 39.7.2 37.5.2c-2.1 0-4.2.8-5.9 2.4-1.3 1.3-2.6 4.7-3.7 8.1-.5-.1-1-.2-1.5-.2s-1 .1-1.5.2c-1.1-3.5-2.4-6.8-3.7-8.2C19.6.8 17.5 0 15.4 0c-2.1 0-4.2.8-5.9 2.4-3.2 3.2-3.2 8.5 0 11.7.6.6 1.6 1.2 2.7 1.7h-8C1.9 15.9 0 17.7 0 20v3.6c0 2.3 1.9 4.2 4.2 4.2h19.1V16h6.3v11.8h19.1c2.3 0 4.2-1.9 4.2-4.2V20c.1-2.3-1.8-4.1-4.1-4.1zM34.7 5.5c.8-.8 1.8-1.2 2.9-1.2 1.1 0 2.1.4 2.9 1.2.8.8 1.2 1.8 1.2 2.9 0 1.1-.4 2.1-1.2 2.9-.9.8-4.3 2.1-8.5 3.3-.1-.4-.3-.8-.5-1.2 1.2-3.9 2.4-7.1 3.2-7.9zm-22.2-.1c.8-.8 1.8-1.2 2.9-1.2 1.1 0 2.1.4 2.9 1.2.8.8 2 4 3.2 8-.2.3-.3.7-.5 1.1-4.2-1.2-7.6-2.5-8.5-3.3-1.6-1.6-1.6-4.2 0-5.8zm0 0"/></symbol><symbol id="icons-16" viewBox="0 0 29 29"><style>.st0{fill:#ffb600}.st1{fill:#cb2026}.st2{fill:#fff}.st3{fill:#104493}.st4{clip-path:url(#SVGID_2_)}.st5{clip-path:url(#SVGID_4_);fill-rule:evenodd;clip-rule:evenodd}.st6{fill:none;stroke:#000;stroke-width:3;stroke-linecap:round;stroke-linejoin:round;stroke-miterlimit:10}.st7{fill:#231f20}.st8{fill:#f9b953}.st9{fill:#c31a36}.st10{fill:#18bf18}.st11{clip-path:url(#SVGID_6_)}.st12{fill:#ff7a3e}.st13{stroke:#000;stroke-width:2.5;stroke-miterlimit:10}.st13,.st14{fill:none}.st15{stroke:#231f20;stroke-width:.55;stroke-miterlimit:10}.st16{clip-path:url(#SVGID_8_)}</style><path class="st6" d="M1.5 1.5l26 26M27.5 1.5l-26 26"/></symbol><symbol id="icons-17" viewBox="0 0 25.5 70.5"><style>.st0{fill:#ffb600}.st1{fill:#cb2026}.st2{fill:#fff}.st3{fill:#104493}.st4{clip-path:url(#SVGID_2_)}.st5{clip-path:url(#SVGID_4_);fill-rule:evenodd;clip-rule:evenodd}.st6{fill:none;stroke:#000;stroke-width:3;stroke-linecap:round;stroke-linejoin:round;stroke-miterlimit:10}.st7{fill:#231f20}.st8{fill:#f9b953}.st9{fill:#c31a36}.st10{fill:#18bf18}.st11{clip-path:url(#SVGID_6_)}.st12{fill:#ff7a3e}.st13{stroke:#000;stroke-width:2.5;stroke-miterlimit:10}.st13,.st14{fill:none}.st15{stroke:#231f20;stroke-width:.55;stroke-miterlimit:10}.st16{clip-path:url(#SVGID_8_)}</style><path class="st6" d="M1.5 69L24 35.3 1.5 1.5"/></symbol><symbol id="icons-18" viewBox="0 0 21.5 9.2"><style>.st0{fill:#ffb600}.st1{fill:#cb2026}.st2{fill:#fff}.st3{fill:#104493}.st4{clip-path:url(#SVGID_2_)}.st5{clip-path:url(#SVGID_4_);fill-rule:evenodd;clip-rule:evenodd}.st6{fill:none;stroke:#76989f;stroke-width:3;stroke-linecap:round;stroke-linejoin:round;stroke-miterlimit:10}.st7{fill:#231f20}.st8{fill:#f9b953}.st9{fill:#c31a36}.st10{fill:#18bf18}.st11{clip-path:url(#SVGID_6_)}.st12{fill:#ff7a3e}.st13{stroke:#76989f;stroke-width:2.5;stroke-miterlimit:10}.st13,.st14{fill:none}.st15{stroke:#231f20;stroke-width:.55;stroke-miterlimit:10}.st16{clip-path:url(#SVGID_8_)}</style><path d="M1.5 1.5l9.3 6.2L20 1.5" class="st6"/></symbol><symbol id="icons-19" viewBox="0 0 19 3"><style>.st0{fill:#ffb600}.st1{fill:#cb2026}.st2{fill:#fff}.st3{fill:#104493}.st4{clip-path:url(#SVGID_2_)}.st5{clip-path:url(#SVGID_4_);fill-rule:evenodd;clip-rule:evenodd}.st6{fill:none;stroke:#000;stroke-width:3;stroke-linecap:round;stroke-linejoin:round;stroke-miterlimit:10}.st7{fill:#231f20}.st8{fill:#f9b953}.st9{fill:#c31a36}.st10{fill:#18bf18}.st11{clip-path:url(#SVGID_6_)}.st12{fill:#ff7a3e}.st13{stroke:#000;stroke-width:2.5;stroke-miterlimit:10}.st13,.st14{fill:none}.st15{stroke:#231f20;stroke-width:.55;stroke-miterlimit:10}.st16{clip-path:url(#SVGID_8_)}</style><path class="st6" d="M1.5 1.5h16"/></symbol><symbol id="icons-20" viewBox="0 0 26.9 28"><style>.st0{fill:#ffb600}.st1{fill:#cb2026}.st2{fill:#fff}.st3{fill:#104493}.st4{clip-path:url(#SVGID_2_)}.st5{clip-path:url(#SVGID_4_);fill-rule:evenodd;clip-rule:evenodd}.st6{fill:none;stroke:#000;stroke-width:3;stroke-linecap:round;stroke-linejoin:round;stroke-miterlimit:10}.st7{fill:#231f20}.st8{fill:#f9b953}.st9{fill:#c31a36}.st10{fill:#18bf18}.st11{clip-path:url(#SVGID_6_)}.st12{fill:#ff7a3e}.st13{stroke:#000;stroke-width:2.5;stroke-miterlimit:10}.st13,.st14{fill:none}.st15{stroke:#231f20;stroke-width:.55;stroke-miterlimit:10}.st16{clip-path:url(#SVGID_8_)}</style><clipPath id="SVGID_2_"><use xlink:href="#SVGID_5_" overflow="visible"/></clipPath><path class="st4" d="M9.9 28c-.9 0-1.7-.4-2.2-1.1L.6 17.5c-.9-1.2-.7-3 .5-3.9 1.2-.9 3-.7 3.9.5l4.7 6.2 11.8-19C22.3 0 24-.4 25.3.4c1.3.8 1.7 2.5.9 3.8l-14 22.4c-.4.9-1.2 1.4-2.1 1.4h-.2zm0 0"/></symbol><symbol id="icons-21" viewBox="0 0 11.6 10.8"><style>.st0{fill:#ffb600}.st1{fill:#cb2026}.st2{fill:#fff}.st3{fill:#104493}.st4{clip-path:url(#SVGID_2_)}.st5{clip-path:url(#SVGID_4_);fill-rule:evenodd;clip-rule:evenodd}.st6{fill:none;stroke:#000;stroke-width:3;stroke-linecap:round;stroke-linejoin:round;stroke-miterlimit:10}.st7{fill:#231f20}.st8{fill:#f9b953}.st9{fill:#c31a36}.st10{fill:#18bf18}.st11{clip-path:url(#SVGID_6_)}.st12{fill:#ff7a3e}.st13{stroke:#000;stroke-width:2.5;stroke-miterlimit:10}.st13,.st14{fill:none}.st15{stroke:#231f20;stroke-width:.55;stroke-miterlimit:10}.st16{clip-path:url(#SVGID_8_)}</style><path d="M4.9.5c.4-.7 1.4-.7 1.8 0L9 4.8l2.4 4.4c.4.7-.1 1.5-.9 1.5H1c-.8 0-1.3-.8-.9-1.5l2.4-4.4L4.9.5z"/></symbol><symbol id="icons-22" viewBox="0 0 20.6 26"><style>.st0{fill:#ffb600}.st1{fill:#cb2026}.st2{fill:#fff}.st3{fill:#104493}.st4{clip-path:url(#SVGID_2_)}.st5{clip-path:url(#SVGID_4_);fill-rule:evenodd;clip-rule:evenodd}.st6{fill:none;stroke:#000;stroke-width:3;stroke-linecap:round;stroke-linejoin:round;stroke-miterlimit:10}.st7{fill:#231f20}.st8{fill:#f9b953}.st9{fill:#c31a36}.st10{fill:#18bf18}.st11{clip-path:url(#SVGID_6_)}.st12{fill:#ff7a3e}.st13{stroke:#000;stroke-width:2.5;stroke-miterlimit:10}.st13,.st14{fill:none}.st15{stroke:#231f20;stroke-width:.55;stroke-miterlimit:10}.st16{clip-path:url(#SVGID_8_)}</style><path class="st15" d="M9.9.3C4.9.5.8 4.4.3 9.3c-.1 1 0 1.9.1 2.9 0 0 0 .1.1.3.2.7.4 1.4.7 2 1.1 2.7 3.6 6.7 9 11.2.1 0 .1.1.1.1s.1 0 .1-.1c5.4-4.5 7.8-8.5 8.9-11.2.3-.7.5-1.3.7-2 0-.2.1-.3.1-.3.1-.6.2-1.3.2-1.9C20.3 4.7 15.6.1 9.9.3zm.4 14.6c-2.5 0-4.5-2-4.5-4.5s2-4.5 4.5-4.5 4.5 2 4.5 4.5-2 4.5-4.5 4.5z"/></symbol><symbol id="icons-23" viewBox="0 0 20 20"><style>.st0{fill:#ffb600}.st1{fill:#cb2026}.st2{fill:#fff}.st3{fill:#104493}.st4{clip-path:url(#SVGID_2_)}.st5{clip-path:url(#SVGID_4_);fill-rule:evenodd;clip-rule:evenodd}.st6{fill:none;stroke:#000;stroke-width:3;stroke-linecap:round;stroke-linejoin:round;stroke-miterlimit:10}.st7{fill:#231f20}.st8{fill:#f9b953}.st9{fill:#c31a36}.st10{fill:#18bf18}.st11{clip-path:url(#SVGID_6_)}.st12{fill:#ff7a3e}.st13{stroke:#000;stroke-width:2.5;stroke-miterlimit:10}.st13,.st14{fill:none}.st15{stroke:#231f20;stroke-width:.55;stroke-miterlimit:10}.st16{clip-path:url(#SVGID_8_)}</style><path class="st6" d="M1.5 1.5l17 17M18.5 1.5l-17 17"/></symbol><symbol id="icons-24" viewBox="0 0 27 27"><style>.st0{fill:#ffb600}.st1{fill:#cb2026}.st2{fill:#fff}.st3{fill:#104493}.st4{clip-path:url(#SVGID_2_)}.st5{clip-path:url(#SVGID_4_);fill-rule:evenodd;clip-rule:evenodd}.st6{fill:none;stroke:#000;stroke-width:3;stroke-linecap:round;stroke-linejoin:round;stroke-miterlimit:10}.st7{fill:#231f20}.st8{fill:#f9b953}.st9{fill:#c31a36}.st10{fill:#18bf18}.st11{clip-path:url(#SVGID_6_)}.st12{fill:#ff7a3e}.st13{stroke:#000;stroke-width:2.5;stroke-miterlimit:10}.st13,.st14{fill:none}.st15{stroke:#231f20;stroke-width:.55;stroke-miterlimit:10}.st16{clip-path:url(#SVGID_8_)}</style><path class="st6" d="M13.5 1.5v24M25.5 13.5h-24"/></symbol><symbol id="icons-25" viewBox="0 0 27 3"><style>.st0{fill:#ffb600}.st1{fill:#cb2026}.st2{fill:#fff}.st3{fill:#104493}.st4{clip-path:url(#SVGID_2_)}.st5{clip-path:url(#SVGID_4_);fill-rule:evenodd;clip-rule:evenodd}.st6{fill:none;stroke:#000;stroke-width:3;stroke-linecap:round;stroke-linejoin:round;stroke-miterlimit:10}.st7{fill:#231f20}.st8{fill:#f9b953}.st9{fill:#c31a36}.st10{fill:#18bf18}.st11{clip-path:url(#SVGID_6_)}.st12{fill:#ff7a3e}.st13{stroke:#000;stroke-width:2.5;stroke-miterlimit:10}.st13,.st14{fill:none}.st15{stroke:#231f20;stroke-width:.55;stroke-miterlimit:10}.st16{clip-path:url(#SVGID_8_)}</style><path class="st6" d="M25.5 1.5h-24"/></symbol><symbol id="icons-26" viewBox="0 0 27.6 28.6"><style>.st0{fill:#ffb600}.st1{fill:#cb2026}.st2{fill:#fff}.st3{fill:#104493}.st4{clip-path:url(#SVGID_2_)}.st5{clip-path:url(#SVGID_4_);fill-rule:evenodd;clip-rule:evenodd}.st6{fill:none;stroke:#000;stroke-width:3;stroke-linecap:round;stroke-linejoin:round;stroke-miterlimit:10}.st7{fill:#231f20}.st8{fill:#f9b953}.st9{fill:#c31a36}.st10{fill:#18bf18}.st11{clip-path:url(#SVGID_6_)}.st12{fill:#ff7a3e}.st13{stroke:#000;stroke-width:2.5;stroke-miterlimit:10}.st13,.st14{fill:none}.st15{stroke:#231f20;stroke-width:.55;stroke-miterlimit:10}.st16{clip-path:url(#SVGID_8_)}</style><path d="M.4 26c-.6.6-.6 1.6 0 2.1.3.3.7.4 1 .4.4 0 .8-.2 1.1-.5l6.9-7c1.9 1.4 4.2 2.1 6.6 2.1 6.4 0 11.5-5.2 11.5-11.5C27.6 5.2 22.4 0 16.1 0 9.7 0 4.5 5.2 4.5 11.5c0 2.7 1 5.3 2.7 7.4L.4 26zM16.1 3c4.7 0 8.5 3.8 8.5 8.5S20.8 20 16.1 20s-8.5-3.8-8.5-8.5C7.5 6.8 11.4 3 16.1 3zm0 0"/></symbol><symbol id="icons-27" viewBox="0 0 24 24"><style>.st0{fill:#ffb600}.st1{fill:#cb2026}.st2{fill:#fff}.st3{fill:#104493}.st4{clip-path:url(#SVGID_2_)}.st5{clip-path:url(#SVGID_4_);fill-rule:evenodd;clip-rule:evenodd}.st6{fill:none;stroke:#000;stroke-width:3;stroke-linecap:round;stroke-linejoin:round;stroke-miterlimit:10}.st7{fill:#231f20}.st8{fill:#f9b953}.st9{fill:#c31a36}.st10{fill:#18bf18}.st11{clip-path:url(#SVGID_6_)}.st12{fill:#ff7a3e}.st13{stroke:#000;stroke-width:2.5;stroke-miterlimit:10}.st13,.st14{fill:none}.st15{stroke:#231f20;stroke-width:.55;stroke-miterlimit:10}.st16{clip-path:url(#SVGID_8_)}</style><path d="M12 0C5.4 0 0 5.4 0 12s5.4 12 12 12 12-5.4 12-12S18.6 0 12 0zm0 21.8c-5.4 0-9.8-4.4-9.8-9.8S6.6 2.2 12 2.2s9.8 4.4 9.8 9.8-4.4 9.8-9.8 9.8zm0 0"/><path d="M12 5.1c-.8 0-1.5.7-1.5 1.5 0 .7.7 1.4 1.5 1.4s1.5-.7 1.5-1.5-.7-1.4-1.5-1.4zm0 0M12 10.2c-.6 0-1.1.5-1.1 1.1v6.5c0 .6.5 1.1 1.1 1.1.6 0 1.1-.5 1.1-1.1v-6.5c0-.6-.5-1.1-1.1-1.1zm0 0"/></symbol><symbol id="icons-28" viewBox="0 0 23.9 23.9"><style>.st0{fill:#ffb600}.st1{fill:#cb2026}.st2{fill:#fff}.st3{fill:#104493}.st4{clip-path:url(#SVGID_2_)}.st5{clip-path:url(#SVGID_4_);fill-rule:evenodd;clip-rule:evenodd}.st6{fill:none;stroke:#000;stroke-width:3;stroke-linecap:round;stroke-linejoin:round;stroke-miterlimit:10}.st7{fill:#231f20}.st8{fill:#f9b953}.st9{fill:#c31a36}.st10{fill:#18bf18}.st11{clip-path:url(#SVGID_6_)}.st12{fill:#ff7a3e}.st13{stroke:#000;stroke-width:2.5;stroke-miterlimit:10}.st13,.st14{fill:none}.st15{stroke:#231f20;stroke-width:.55;stroke-miterlimit:10}.st16{clip-path:url(#SVGID_8_)}</style><path d="M11.9 0C5.4 0 0 5.4 0 11.9s5.4 11.9 11.9 11.9 11.9-5.4 11.9-11.9S18.5 0 11.9 0zm0 21.4c-5.2 0-9.4-4.2-9.4-9.4s4.2-9.4 9.4-9.4 9.4 4.2 9.4 9.4-4.2 9.4-9.4 9.4zm0 0"/><path d="M18.4 11.6h-4.7c-.2-.3-.4-.5-.7-.7V5.3c0-.6-.5-1.1-1.1-1.1-.6 0-1.1.5-1.1 1.1v5.6c-.6.4-1 1-1 1.7 0 1.1.9 2 2 2 .7 0 1.4-.4 1.7-1h4.7c.6 0 1.1-.5 1.1-1.1.1-.4-.4-.9-.9-.9zm0 0"/></symbol><symbol id="icons-29" viewBox="0 0 35 22.8"><style>.st0{fill:#ffb600}.st1{fill:#cb2026}.st2{fill:#fff}.st3{fill:#104493}.st4{clip-path:url(#SVGID_2_)}.st5{clip-path:url(#SVGID_4_);fill-rule:evenodd;clip-rule:evenodd}.st6{fill:none;stroke:#000;stroke-width:3;stroke-linecap:round;stroke-linejoin:round;stroke-miterlimit:10}.st7{fill:#231f20}.st8{fill:#f9b953}.st9{fill:#c31a36}.st10{fill:#18bf18}.st11{clip-path:url(#SVGID_6_)}.st12{fill:#ff7a3e}.st13{stroke:#000;stroke-width:2.5;stroke-miterlimit:10}.st13,.st14{fill:none}.st15{stroke:#231f20;stroke-width:.55;stroke-miterlimit:10}.st16{clip-path:url(#SVGID_8_)}</style><clipPath id="SVGID_2_"><use xlink:href="#SVGID_7_" overflow="visible"/></clipPath><path class="st4" d="M32.3 13.1l.2-.1c.4-.3.5-.9.2-1.3s-.9-.5-1.3-.2c-14.5 10.1-25 .4-25.5 0-.4-.3-1-.3-1.3 0-.3.4-.3 1 0 1.3 0 0 .4.3 1 .8l-1.9 3.1c-.3.4-.1 1 .3 1.3.1.1.3.1.5.1.3 0 .6-.2.8-.4l1.8-3c1 .6 2.3 1.3 3.9 1.9l-.9 3c-.2.5.1 1 .6 1.2h.3c.4 0 .8-.3.9-.7l.9-3c1.4.4 3.1.7 4.8.7v3c0 .5.4.9.9.9s.9-.4.9-.9v-3c1.5-.1 3.1-.3 4.8-.8l1.1 3c.1.4.5.6.9.6l.3-.1c.5-.2.7-.7.5-1.2l-1-2.9c1.5-.6 3.1-1.3 4.7-2.3l1.5 2c.2.2.5.4.7.4.2 0 .4-.1.6-.2.4-.3.5-.9.2-1.3l-1.4-1.9zm0 0"/></symbol><symbol id="icons-30" viewBox="0 0 39 32.9"><style>.st0{fill:#ffb600}.st1{fill:#cb2026}.st2{fill:#fff}.st3{fill:#104493}.st4{clip-path:url(#SVGID_2_)}.st5{clip-path:url(#SVGID_4_);fill-rule:evenodd;clip-rule:evenodd}.st6{fill:none;stroke:#000;stroke-width:3;stroke-linecap:round;stroke-linejoin:round;stroke-miterlimit:10}.st7{fill:#231f20}.st8{fill:#f9b953}.st9{fill:#c31a36}.st10{fill:#18bf18}.st11{clip-path:url(#SVGID_6_)}.st12{fill:#ff7a3e}.st13{stroke:#000;stroke-width:2.5;stroke-miterlimit:10}.st13,.st14{fill:none}.st15{stroke:#231f20;stroke-width:.55;stroke-miterlimit:10}.st16{clip-path:url(#SVGID_8_)}</style><path d="M5.2 11.7c.3.5.9.8 1.4.7.2 0 .4-.1.6-.2.7-.4.9-1.4.5-2.1l-3-5c-.5-.8-1.4-1-2.1-.5-.7.4-1 1.3-.5 2.1l3.1 5zm0 0M11.7 8.5c.2.7.9 1.2 1.6 1.1h.2c.8-.2 1.3-1 1.1-1.8L13.2 2c-.2-.8-1-1.3-1.8-1.1-.8.2-1.3 1-1.1 1.8l1.4 5.8zm0 0M20.2 9h.2c.7-.1 1.3-.7 1.4-1.4l.3-5.9c0-.8-.6-1.6-1.4-1.6-.8 0-1.6.6-1.6 1.4l-.3 5.9c-.1.8.5 1.5 1.4 1.6zm0 0M26.8 10.4c.2.1.5.1.7.1.6-.1 1.1-.4 1.3-1l2.1-5.6c.3-.8-.1-1.7-.9-2-.8-.3-1.7.1-2 .9l-2.1 5.6c-.3.8.1 1.7.9 2zm0 0M38.4 6.8c-.7-.5-1.6-.4-2.1.2l-3.7 4.7c-.5.7-.4 1.6.2 2.1.3.3.7.4 1.1.3.4 0 .8-.2 1-.6l3.7-4.7c.6-.6.5-1.5-.2-2zm0 0M36.4 20.8c-.1-.1-1.9-2.3-4.9-4.5-4.1-3-8.5-4.6-12.8-4.6-4.3 0-8.8 1.6-12.8 4.6C3 18.5 1.2 20.6 1 20.8L.1 22c-.2.2-.2.5 0 .7l.9 1.1c.1.1 1.8 2.3 4.9 4.5 4.1 3 8.5 4.6 12.8 4.6 4.3 0 8.8-1.6 12.8-4.6 3-2.2 4.8-4.4 4.9-4.5l.9-1.1c.2-.2.2-.5 0-.7l-.9-1.2zm-1.8 1.5c-.1.1-1.7 2.1-4.4 4.1-3.7 2.7-7.6 4.1-11.5 4.1-3.8 0-7.8-1.4-11.5-4.1-2.8-2-4.4-4.1-4.4-4.1s1.7-2.1 4.4-4.1c2.4-1.8 4.9-3 7.5-3.6.7.4 1.1 1.2 1.1 2 0 1.3-1.1 2.4-2.4 2.4-.7 0-1.3-.3-1.7-.8-.1.5-.2 1.1-.2 1.7 0 4 3.2 7.2 7.2 7.2s7.2-3.2 7.2-7.2c0-1.9-.7-3.6-2-4.9 2.1.7 4.2 1.8 6.2 3.3 2.8 1.9 4.4 3.9 4.5 4zm0 0"/></symbol></svg>