<svg xmlns="http://www.w3.org/2000/svg" width="39" height="32.9"><rect id="backgroundrect" width="100%" height="100%" fill="none"/><style>.st0{fill:#ffb600}.st1{fill:#cb2026}.st2{fill:#fff}.st3{fill:#104493}.st4{clip-path:url(#SVGID_2_)}.st5{clip-path:url(#SVGID_4_);fill-rule:evenodd;clip-rule:evenodd}.st6{fill:none;stroke:#000;stroke-width:3;stroke-linecap:round;stroke-linejoin:round;stroke-miterlimit:10}.st7{fill:#231f20}.st8{fill:#f9b953}.st9{fill:#c31a36}.st10{fill:#18bf18}.st11{clip-path:url(#SVGID_6_)}.st12{fill:#ff7a3e}.st13{stroke:#000;stroke-width:2.5;stroke-miterlimit:10}.st13,.st14{fill:none}.st15{stroke:#231f20;stroke-width:.55;stroke-miterlimit:10}.st16{clip-path:url(#SVGID_8_)}</style><g class="currentLayer"><title>Layer 1</title><g id="svg_1" class="selected" fill="#c21030"><path d="M5.2 12.24c.3.5.9.8 1.4.7.2 0 .4-.1.6-.2.7-.4.9-1.4.5-2.1l-3-5c-.5-.8-1.4-1-2.1-.5-.7.4-1 1.3-.5 2.1l3.1 5zm0 0" id="svg_2"/><path d="M11.7 9.04c.2.7.9 1.2 1.6 1.1h.2c.8-.2 1.3-1 1.1-1.8l-1.4-5.8c-.2-.8-1-1.3-1.8-1.1-.8.2-1.3 1-1.1 1.8l1.4 5.8zm0 0" id="svg_3"/><path d="M20.2 9.54h.2c.7-.1 1.3-.7 1.4-1.4l.3-5.9c0-.8-.6-1.6-1.4-1.6-.8 0-1.6.6-1.6 1.4l-.3 5.9c-.1.8.5 1.5 1.4 1.6zm0 0" id="svg_4"/><path d="M26.8 10.94c.2.1.5.1.7.1.6-.1 1.1-.4 1.3-1l2.1-5.6c.3-.8-.1-1.7-.9-2-.8-.3-1.7.1-2 .9l-2.1 5.6c-.3.8.1 1.7.9 2zm0 0" id="svg_5"/><path d="M38.4 7.34c-.7-.5-1.6-.4-2.1.2l-3.7 4.7c-.5.7-.4 1.6.2 2.1.3.3.7.4 1.1.3.4 0 .8-.2 1-.6l3.7-4.7c.6-.6.5-1.5-.2-2zm0 0" id="svg_6"/><path d="M36.4 21.34c-.1-.1-1.9-2.3-4.9-4.5-4.1-3-8.5-4.6-12.8-4.6-4.3 0-8.8 1.6-12.8 4.6-2.9 2.2-4.7 4.3-4.9 4.5l-.9 1.2c-.2.2-.2.5 0 .7l.9 1.1c.1.1 1.8 2.3 4.9 4.5 4.1 3 8.5 4.6 12.8 4.6 4.3 0 8.8-1.6 12.8-4.6 3-2.2 4.8-4.4 4.9-4.5l.9-1.1c.2-.2.2-.5 0-.7l-.9-1.2zm-1.8 1.5c-.1.1-1.7 2.1-4.4 4.1-3.7 2.7-7.6 4.1-11.5 4.1-3.8 0-7.8-1.4-11.5-4.1-2.8-2-4.4-4.1-4.4-4.1s1.7-2.1 4.4-4.1c2.4-1.8 4.9-3 7.5-3.6.7.4 1.1 1.2 1.1 2 0 1.3-1.1 2.4-2.4 2.4-.7 0-1.3-.3-1.7-.8-.1.5-.2 1.1-.2 1.7 0 4 3.2 7.2 7.2 7.2s7.2-3.2 7.2-7.2c0-1.9-.7-3.6-2-4.9 2.1.7 4.2 1.8 6.2 3.3 2.8 1.9 4.4 3.9 4.5 4zm0 0" id="svg_7"/></g></g></svg>