<svg xmlns="http://www.w3.org/2000/svg" xmlns:xlink="http://www.w3.org/1999/xlink" width="61.8" height="63.3"><rect id="backgroundrect" width="100%" height="100%" fill="none"/><style>.st0{fill:#ffb600}.st1{fill:#cb2026}.st2{fill:#fff}.st3{fill:#104493}.st4{clip-path:url(#SVGID_2_)}.st5{clip-path:url(#SVGID_4_);fill-rule:evenodd;clip-rule:evenodd}.st6{fill:none;stroke:#000;stroke-width:3;stroke-linecap:round;stroke-linejoin:round;stroke-miterlimit:10}.st7{fill:#231f20}.st8{fill:#f9b953}.st9{fill:#c31a36}.st10{fill:#18bf18}.st11{clip-path:url(#SVGID_6_)}.st12{fill:#ff7a3e}.st13{stroke:#000;stroke-width:2.5;stroke-miterlimit:10}.st13,.st14{fill:none}.st15{stroke:#231f20;stroke-width:.55;stroke-miterlimit:10}.st16{clip-path:url(#SVGID_8_)}</style><g class="currentLayer"><title>Layer 1</title><g id="svg_1" class="selected" fill="#ff7731"><path d="M25.2 26.3c0 1.5-1.2 2.6-2.6 2.6-1.5 0-2.6-1.2-2.6-2.6 0-1.5 1.2-2.6 2.6-2.6 1.4-.1 2.6 1.1 2.6 2.6zm0 0" id="svg_2"/><g id="svg_3"><defs><path id="SVGID_1_" d="M0 0h61.8v63.3H0z"/></defs><clipPath id="SVGID_2_"><use xlink:href="#SVGID_1_" id="svg_4" overflow="visible"/></clipPath><path class="st4" d="M41.9 37c0 1.5-1.2 2.6-2.6 2.6-1.5 0-2.6-1.2-2.6-2.6 0-1.5 1.2-2.6 2.6-2.6 1.4-.1 2.6 1.1 2.6 2.6zm0 0" id="svg_5"/><path class="st4" d="M61 35.1l-1-1.3c-1-1.4-1.1-3.3 0-4.8l.9-1.3c1.4-2 .8-4.8-1.4-6l-1.4-.8c-1.6-.8-2.4-2.6-2.1-4.3l.3-1.6c.4-2.4-1.4-4.7-3.9-4.8l-1.6-.1c-1.8-.1-3.3-1.3-3.8-3l-.5-1.6c-.7-2.4-3.3-3.6-5.6-2.6l-1.5.6c-1.6.7-3.5.3-4.7-1l-1.1-1.2c-1.6-1.8-4.5-1.8-6.2.1l-1.1 1.2c-1.2 1.3-3 1.8-4.7 1.1l-1.5-.6c-2.3-.9-4.9.3-5.5 2.7l-.4 1.6c-.5 1.7-2 2.9-3.7 3l-1.6.1c-2.5.1-4.3 2.4-3.8 4.8l.5 1.7c.3 1.7-.5 3.5-2 4.3l-1.4.8c-2.2 1.2-2.8 4-1.3 6l1 1.3c1 1.4 1.1 3.3 0 4.8L1 35.5c-1.4 2-.8 4.8 1.4 6l1.4.8c1.6.8 2.4 2.6 2.1 4.3l-.3 1.6C5.2 50.6 7 52.9 9.5 53l1.6.1c1.8.1 3.3 1.3 3.8 3l.5 1.6c.7 2.4 3.3 3.6 5.6 2.6l1.5-.6c1.6-.7 3.5-.3 4.7 1l1.1 1.2c1.7 1.8 4.5 1.8 6.2-.1l1.1-1.2c1.2-1.3 3-1.8 4.7-1.1l1.5.6c2.3.9 4.9-.3 5.5-2.7l.4-1.6c.5-1.7 2-2.9 3.7-3l1.6-.1c2.5-.1 4.3-2.4 3.8-4.8l-.3-1.6c-.3-1.7.5-3.5 2-4.3l1.4-.8c1.9-1.3 2.6-4.1 1.1-6.1zm-44.9-8.8c0-3.5 2.8-6.4 6.4-6.4 3.5 0 6.4 2.8 6.4 6.4 0 3.5-2.8 6.4-6.4 6.4-3.5-.1-6.4-2.9-6.4-6.4zm7.6 16.4c-.5.7-1.5.7-2.2.2-.7-.5-.7-1.5-.2-2.2L38 20.6c.5-.7 1.5-.7 2.2-.2.7.5.7 1.5.2 2.2L23.7 42.7zm15.6.6c-3.5 0-6.4-2.8-6.4-6.4 0-3.5 2.8-6.4 6.4-6.4 3.5 0 6.4 2.8 6.4 6.4-.1 3.6-2.9 6.4-6.4 6.4zm0 0" id="svg_6"/></g></g></g></svg>