<svg xmlns="http://www.w3.org/2000/svg" xmlns:xlink="http://www.w3.org/1999/xlink" width="35" height="22.8"><rect id="backgroundrect" width="100%" height="100%" fill="none"/><style>.st0{fill:#ffb600}.st1{fill:#cb2026}.st2{fill:#fff}.st3{fill:#104493}.st4{clip-path:url(#SVGID_2_)}.st5{clip-path:url(#SVGID_4_);fill-rule:evenodd;clip-rule:evenodd}.st6{fill:none;stroke:#000;stroke-width:3;stroke-linecap:round;stroke-linejoin:round;stroke-miterlimit:10}.st7{fill:#231f20}.st8{fill:#f9b953}.st9{fill:#c31a36}.st10{fill:#18bf18}.st11{clip-path:url(#SVGID_6_)}.st12{fill:#ff7a3e}.st13{stroke:#000;stroke-width:2.5;stroke-miterlimit:10}.st13,.st14{fill:none}.st15{stroke:#231f20;stroke-width:.55;stroke-miterlimit:10}.st16{clip-path:url(#SVGID_8_)}</style><g class="currentLayer"><title>Layer 1</title><g id="svg_1" class="selected" fill="#c21030"><g id="svg_2"><defs><path id="SVGID_7_" d="M0 0h35v22.8H0z"/></defs><clipPath id="SVGID_2_"><use xlink:href="#SVGID_7_" id="svg_3" overflow="visible"/></clipPath><path class="st4" d="M32.3 13.1l.2-.1c.4-.3.5-.9.2-1.3s-.9-.5-1.3-.2c-14.5 10.1-25 .4-25.5 0-.4-.3-1-.3-1.3 0-.3.4-.3 1 0 1.3 0 0 .4.3 1 .8l-1.9 3.1c-.3.4-.1 1 .3 1.3.1.1.3.1.5.1.3 0 .6-.2.8-.4l1.8-3c1 .6 2.3 1.3 3.9 1.9l-.9 3c-.2.5.1 1 .6 1.2h.3c.4 0 .8-.3.9-.7l.9-3c1.4.4 3.1.7 4.8.7v3c0 .5.4.9.9.9s.9-.4.9-.9v-3c1.5-.1 3.1-.3 4.8-.8l1.1 3c.1.4.5.6.9.6l.3-.1c.5-.2.7-.7.5-1.2l-1-2.9c1.5-.6 3.1-1.3 4.7-2.3l1.5 2c.2.2.5.4.7.4.2 0 .4-.1.6-.2.4-.3.5-.9.2-1.3l-1.4-1.9zm0 0" id="svg_4"/></g></g></g></svg>