<svg id="Layer_1" xmlns="http://www.w3.org/2000/svg" xmlns:xlink="http://www.w3.org/1999/xlink" viewBox="0 0 30.4 34.4"><style>.st0{clip-path:url(#SVGID_2_);fill:#fff}</style><defs><path id="SVGID_1_" d="M0 0h30.4v34.4H0z"/></defs><clipPath id="SVGID_2_"><use xlink:href="#SVGID_1_" overflow="visible"/></clipPath><path class="st0" d="M27.7 18.9c1.5.1 2.7-1.1 2.8-2.6.1-1.5-1-2.8-2.4-2.9l-9.7-1.2s2-3.4 2-8.4C20.4.4 18 0 16.6 0c-1.1 0-1.4 2.1-1.4 2.1-.3 1.4-.6 2.6-1.7 4.8-1.3 2.5-3 2.2-5 4.5-.4.4-.8 1-1.3 1.8 0 0-.1.1-.1.2s-.1.2-.1.3c-.1.1-.2.3-.2.4-1.3 1.3-3.2 1.1-4 1.1-1.7 0-2.5 1-2.5 2.5v11.6c0 1.8.7 2.4 2.5 2.4h2.5c1.3 0 2.3.7 3.8 1.3 2.1.7 5.2 1.3 10.6 1.3h3.9c.9 0 1.6-.4 2.1-.9.2-.2.4-.5.5-1v-.5c.1-1.5-.9-2.1-1.4-2.2l1.7.1c1.5.1 2.9-1 2.9-2.8 0-1.5-1.2-2.5-2.7-2.6h.9c1.5.1 2.7-1.1 2.8-2.6-.1-1.5-1.3-2.8-2.7-2.9z"/></svg>